<svg width="9" height="28" viewBox="0 0 9 28" fill="none" xmlns="http://www.w3.org/2000/svg">
<path d="M7.3135 0.707264L1.31351 0.717946C0.761319 0.718929 0.314852 1.47541 0.316511 2.40722L0.358572 26.0322C0.360231 26.964 0.809388 27.7189 1.36157 27.7179L7.36157 27.7072C7.91375 27.7062 8.36022 26.9498 8.35856 26.0179L8.3165 2.39298C8.31484 1.46117 7.86568 0.706281 7.3135 0.707264ZM1.35857 26.0304L1.31651 2.40544L7.3165 2.39476L7.32251 5.76976L5.57251 5.77287C5.43439 5.77312 5.32285 5.96211 5.32326 6.19519L5.32477 7.03894C5.32518 7.27203 5.43739 7.46061 5.57552 7.46037L7.32551 7.45725L7.33152 10.8322L5.58152 10.8354C5.4434 10.8356 5.33186 11.0246 5.33228 11.2577L5.33378 12.1014C5.33419 12.3345 5.4464 12.5231 5.58453 12.5229L7.33453 12.5197L7.34053 15.8947L5.59054 15.8979C5.45241 15.8981 5.34087 16.0871 5.34129 16.3202L5.34279 17.1639C5.34321 17.397 5.45542 17.5856 5.59354 17.5854L7.34354 17.5822L7.34955 20.9572L5.59955 20.9603C5.46143 20.9606 5.34989 21.1496 5.3503 21.3827L5.3518 22.2264C5.35222 22.4595 5.46443 22.6481 5.60255 22.6478L7.35255 22.6447L7.35856 26.0197L1.35857 26.0304Z" fill="#212121"/>
</svg>
