<svg width="14" height="25" viewBox="0 0 14 25" fill="none" xmlns="http://www.w3.org/2000/svg">
<path d="M13.8017 8.20188C13.5965 7.8011 13.1841 7.5491 12.7337 7.5491L10.2469 7.5491L12.0617 2.55911C12.1953 2.1911 12.1413 1.78113 11.9169 1.46069C11.6921 1.13988 11.3253 0.949097 10.9337 0.949097L4.33368 0.949097C3.7829 0.949097 3.3029 1.32391 3.16968 1.85791L0.769683 11.4579C0.680105 11.8163 0.760495 12.1963 0.988073 12.4875C1.21528 12.7787 1.56407 12.9491 1.93368 12.9491L4.44248 12.9491L0.801276 23.3527C0.604073 23.9155 0.850495 24.5379 1.37929 24.8135C1.55568 24.9051 1.74529 24.9491 1.93289 24.9491C2.3085 24.9491 2.67529 24.7728 2.90728 24.4503L13.7073 9.45035C13.9709 9.08472 14.0073 8.60271 13.8017 8.20188ZM1.93368 23.7491L6.13368 11.7491L1.93368 11.7491L4.33368 2.1491L10.9337 2.1491L8.53368 8.7491L12.7337 8.7491L1.93368 23.7491Z" fill="black"/>
</svg>
