<svg width="422" height="389" viewBox="0 0 422 389" fill="none" xmlns="http://www.w3.org/2000/svg">
<g opacity="0.1">
<path d="M211.249 129.983C238.935 130.057 261.32 152.562 261.246 180.249C261.171 207.935 238.667 230.32 210.98 230.246C183.294 230.171 160.909 207.667 160.983 179.98C161.057 152.294 183.562 129.909 211.249 129.983Z" fill="white"/>
<path fill-rule="evenodd" clip-rule="evenodd" d="M421.665 180.678C421.949 74.6064 343.748 -13.3554 241.751 -28.2236L241.421 95.0934C276.435 107.575 301.456 141.067 301.35 180.356C301.245 219.645 276.046 253.003 240.965 265.296L240.635 388.613C342.71 374.292 421.381 286.75 421.665 180.678ZM180.808 265.135L180.478 388.452C78.4812 373.584 0.279683 285.622 0.563629 179.551C0.847575 73.4791 79.5189 -14.0628 181.594 -28.3847L181.264 94.9324C146.183 107.226 120.984 140.584 120.878 179.873C120.773 219.162 145.794 252.654 180.808 265.135ZM211.249 129.983C238.935 130.057 261.32 152.562 261.246 180.249C261.171 207.935 238.667 230.32 210.98 230.246C183.294 230.171 160.909 207.667 160.983 179.98C161.057 152.294 183.562 129.909 211.249 129.983Z" fill="white"/>
</g>
</svg>
