<svg width="51" height="51" viewBox="0 0 51 51" fill="none" xmlns="http://www.w3.org/2000/svg">
<path d="M31.2938 25.4239C31.2485 28.711 28.5471 31.339 25.26 31.2938C21.9729 31.2485 19.3449 28.5471 19.3901 25.26C19.4354 21.9729 22.1368 19.3449 25.4239 19.3901C28.711 19.4354 31.339 22.1368 31.2938 25.4239Z" fill="#212121"/>
<path fill-rule="evenodd" clip-rule="evenodd" d="M24.9976 50.3396C37.591 50.513 48.1376 41.3442 50.0372 29.2539L35.3964 29.0522C33.8684 33.1929 29.859 36.1195 25.1944 36.0552C20.5298 35.991 16.6025 32.9551 15.1891 28.7739L0.548278 28.5722C2.11422 40.7103 12.4043 50.1661 24.9976 50.3396ZM15.2875 21.6317L0.646653 21.43C2.54631 9.33971 13.0929 0.170855 25.6863 0.344314C38.2796 0.517773 48.5697 9.97363 50.1356 22.1117L35.4948 21.91C34.0814 17.7288 30.1541 14.6929 25.4895 14.6287C20.8249 14.5644 16.8155 17.4909 15.2875 21.6317ZM31.2938 25.4239C31.2485 28.711 28.5471 31.339 25.26 31.2938C21.9729 31.2485 19.3449 28.5471 19.3901 25.26C19.4354 21.9729 22.1368 19.3449 25.4239 19.3901C28.711 19.4354 31.339 22.1368 31.2938 25.4239Z" fill="#212121"/>
</svg>
