<svg width="25" height="25" viewBox="0 0 25 25" fill="none" xmlns="http://www.w3.org/2000/svg">
<path d="M21.3377 3.40477L18.2943 3.41019C16.918 1.5991 14.7615 0.411134 12.3164 0.415488C9.87124 0.419841 7.71891 1.61548 6.34908 3.43145L3.30571 3.43687C1.64855 3.43982 0.302779 4.79039 0.30573 6.44755L0.332482 21.4742C0.335433 23.1314 1.68601 24.4771 3.34316 24.4742L21.3752 24.4421C23.0323 24.4391 24.3781 23.0886 24.3751 21.4314L24.3484 6.40475C24.3454 4.74759 22.9949 3.40182 21.3377 3.40477ZM12.319 1.91815C15.6385 1.91224 18.3345 4.59863 18.3404 7.91812C18.3463 11.2376 15.6599 13.9336 12.3404 13.9395C9.02095 13.9454 6.32498 11.259 6.31907 7.93952C6.31316 4.62003 8.99955 1.92406 12.319 1.91815ZM22.8725 21.4341C22.8739 22.2638 22.2022 22.9379 21.3725 22.9394L3.34049 22.9715C2.51074 22.973 1.83663 22.3013 1.83515 21.4715L1.8084 6.44488C1.80692 5.61512 2.47863 4.94101 3.30839 4.93954L5.44781 4.93573C5.04467 5.85824 4.8145 6.87248 4.8164 7.94219C4.82378 12.0849 8.20045 15.4495 12.3431 15.4421C16.4858 15.4348 19.8504 12.0581 19.8431 7.91544C19.8412 6.84573 19.6074 5.83231 19.201 4.91124L21.3404 4.90743C22.1701 4.90596 22.8442 5.57767 22.8457 6.40742L22.8725 21.4341ZM12.3378 12.4368C13.5807 12.4346 14.59 11.4218 14.5877 10.1788C14.5866 9.52514 14.3014 8.94149 13.8551 8.53046L15.2692 5.21408C15.4319 4.83296 15.2546 4.39139 14.8725 4.22866C14.4928 4.06592 14.0498 4.2428 13.8871 4.62533L12.472 7.94312C10.8067 7.83761 10.0781 9.27818 10.0797 10.1868C10.082 11.4298 11.0948 12.439 12.3378 12.4368ZM12.3324 9.43148C12.7475 9.43074 13.0843 9.76637 13.0851 10.1815C13.0858 10.5966 12.7502 10.9334 12.3351 10.9341C11.92 10.9349 11.5831 10.5993 11.5824 10.1842C11.5817 9.76904 11.9173 9.43222 12.3324 9.43148Z" fill="#212121"/>
</svg>
